<svg xmlns="http://www.w3.org/2000/svg" viewBox="0 0 146 120"><path d="M68.13 0C53.94 0 42.81 20 13.9 27.1l-2.23-5.29a6.5 6.5 0 0 0-5.17-10.4 6.5 6.5 0 0 0-.81 12.95L46.2 120l5.99-2.5-14.42-33.33c22.8-6.86 32.51-22.16 49.83-20.58 9.9.9 4.87 19.56 8.11 17.93 16.22-8.15 32.44-11.41 50.29-11.41-7.96-9.78-17.38-20.55-22.71-31.74L120.8 32c-2.32-7.33-2.56-14.75.87-22.22-9.74-3.26-21.1 0-32.45 4.9C82.2 9.77 79.5 0 68.13 0zM15.26 30.42c8.95 6.63 13.63 13.86 16.07 20.94l1.62 6.32c1.24 6.58 1.07 12.8 1.27 18.03z"></path></svg>