<?xml version="1.0" encoding="UTF-8" standalone="no"?>
<!-- Created with Inkscape (http://www.inkscape.org/) -->

<svg
   width="99.999992mm"
   height="100mm"
   viewBox="0 0 99.999992 100"
   version="1.1"
   id="svg5"
   inkscape:version="1.2.1 (9c6d41e, 2022-07-14)"
   sodipodi:docname="semaphore-logo-square.svg"
   inkscape:export-filename="semaphore-logo-square.png"
   inkscape:export-xdpi="96"
   inkscape:export-ydpi="96"
   xmlns:inkscape="http://www.inkscape.org/namespaces/inkscape"
   xmlns:sodipodi="http://sodipodi.sourceforge.net/DTD/sodipodi-0.dtd"
   xmlns:xlink="http://www.w3.org/1999/xlink"
   xmlns="http://www.w3.org/2000/svg"
   xmlns:svg="http://www.w3.org/2000/svg">
  <sodipodi:namedview
     id="namedview7"
     pagecolor="#ffffff"
     bordercolor="#000000"
     borderopacity="0.25"
     inkscape:showpageshadow="2"
     inkscape:pageopacity="0.0"
     inkscape:pagecheckerboard="0"
     inkscape:deskcolor="#d1d1d1"
     inkscape:document-units="mm"
     showgrid="false"
     inkscape:zoom="0.914906"
     inkscape:cx="131.70752"
     inkscape:cy="347.03019"
     inkscape:window-width="1390"
     inkscape:window-height="1205"
     inkscape:window-x="793"
     inkscape:window-y="108"
     inkscape:window-maximized="0"
     inkscape:current-layer="layer1" />
  <defs
     id="defs2">
    <linearGradient
       inkscape:collect="always"
       id="linearGradient19753">
      <stop
         style="stop-color:#5d3fd2;stop-opacity:1;"
         offset="0"
         id="stop19749" />
      <stop
         style="stop-color:#311f7d;stop-opacity:1;"
         offset="1"
         id="stop19751" />
    </linearGradient>
    <linearGradient
       inkscape:collect="always"
       xlink:href="#linearGradient19753"
       id="linearGradient19755"
       x1="-1.7881393e-06"
       y1="-49.999996"
       x2="100"
       y2="-49.999996"
       gradientUnits="userSpaceOnUse"
       gradientTransform="matrix(1.0152263,0,0,1.0152263,-0.76131396,0.7613151)" />
  </defs>
  <g
     inkscape:label="Layer 1"
     inkscape:groupmode="layer"
     id="layer1">
    <rect
       style="mix-blend-mode:normal;fill:url(#linearGradient19755);fill-opacity:1;stroke:none;stroke-width:1.21827;stroke-linecap:round;stroke-linejoin:round;stroke-dasharray:none;stroke-opacity:1;paint-order:normal"
       id="rect234-3"
       width="100.00001"
       height="100"
       x="-3.8146973e-06"
       y="-100"
       transform="rotate(90)"
       ry="0" />
    <path
       d="m 47.381737,20.370601 c -7.633092,0 -13.620149,10.758419 -29.171435,14.577652 l -1.199563,-2.845608 a 3.4964839,3.4964839 0 0 0 -2.781048,-5.594361 3.4964839,3.4964839 0 0 0 -0.435717,6.966064 l 21.791165,51.446721 3.222145,-1.344804 -7.756816,-17.928882 c 12.26459,-3.690132 17.487799,-11.920327 26.804585,-11.070417 5.325415,0.48414 2.619674,10.521728 4.362537,9.644919 8.725071,-4.384045 17.450136,-6.137664 27.052016,-6.137664 -4.28184,-5.260874 -9.34904,-11.054274 -12.21616,-17.073611 l -1.33944,-3.426542 c -1.247967,-3.942966 -1.377067,-7.934341 0.468,-11.952614 -5.239345,-1.753618 -11.35013,0 -17.455521,2.635816 -3.776203,-2.641183 -5.228589,-7.896669 -11.344748,-7.896669 z M 18.941876,36.734136 c 4.814388,3.56642 7.331856,7.45559 8.644384,11.264069 l 0.871431,3.399665 c 0.667021,3.539501 0.575575,6.88537 0.68316,9.698693 z"
       id="path9355-4"
       style="mix-blend-mode:overlay;fill:#000000;fill-opacity:0.212121;stroke-width:0.53792" />
    <path
       d="m 47.538629,20.734012 c -7.175698,0 -12.803996,10.113748 -27.423411,13.704123 l -1.127682,-2.675092 a 3.286966,3.286966 0 0 0 -2.614401,-5.259134 3.286966,3.286966 0 0 0 -0.409608,6.548641 l 20.485385,48.363906 3.029066,-1.26422 -7.292008,-16.854539 c 11.529665,-3.46901 16.439887,-11.206031 25.198388,-10.40705 5.006303,0.455129 2.462697,9.89124 4.101123,9.066972 8.202243,-4.121343 16.404486,-5.76988 25.430995,-5.76988 C 82.891214,51.242109 78.12765,45.795864 75.432337,40.13722 l -1.259176,-3.221215 c -1.173188,-3.706694 -1.294552,-7.458896 0.439953,-11.236384 -4.92539,-1.648537 -10.670001,0 -16.409542,2.477872 -3.549924,-2.482917 -4.915279,-7.423481 -10.664943,-7.423481 z M 20.802954,36.117003 c 4.525898,3.352712 6.892514,7.008833 8.126392,10.589098 l 0.819212,3.195949 c 0.627052,3.327406 0.541085,6.472782 0.642224,9.117524 z"
       id="path9355"
       style="fill:#ffffff;stroke-width:0.505687" />
  </g>
</svg>
